<svg width="69" height="47" fill="none" xmlns="http://www.w3.org/2000/svg"><path d="M67.519 10.129s-.668-4.6-2.711-6.626C62.218.843 59.306.83 57.978.673 48.428 0 34.112 0 34.112 0h-.026S19.77 0 10.223.673c-1.33.157-4.24.17-6.831 2.83-2.043 2.025-2.71 6.626-2.71 6.626S0 15.527 0 20.931v5.065C0 31.4.681 36.798.681 36.798s.668 4.6 2.711 6.626C5.989 46.084 9.395 46 10.91 46.28c5.456.51 23.19.673 23.19.673s14.33-.02 23.877-.7c1.336-.156 4.24-.17 6.831-2.829 2.043-2.026 2.711-6.626 2.711-6.626s.681-5.405.681-10.802V20.93c0-5.404-.681-10.802-.681-10.802zM27.056 32.132V13.377l18.428 9.41-18.428 9.345z" fill="#282928" fill-opacity=".8"/><path d="M27.056 32.132l18.428-9.345-18.428-9.41v18.755z" fill="#fff"/><path opacity=".12" fill-rule="evenodd" clip-rule="evenodd" d="M27.056 13.377l16.158 10.56 2.27-1.15-18.428-9.41z" fill="#000"/></svg>